<?xml version="1.0" encoding="UTF-8"?>
<svg id="Layer_2" data-name="Layer 2" xmlns="http://www.w3.org/2000/svg" viewBox="0 0 345.33 345.33">
  <defs>
    <style>
      .cls-1 {
        font-family: Athena-Light, Athena;
        font-size: 11.59px;
      }

      .cls-1, .cls-2, .cls-3 {
        fill: #f9d2d7;
      }

      .cls-4 {
        fill: #df8fac;
      }

      .cls-3 {
        font-family: Gagkline, Gagkline;
        font-size: 52.51px;
      }
    </style>
  </defs>
  <g id="Layer_1-2" data-name="Layer 1">
    <g>
      <rect class="cls-4" width="345.33" height="345.33"/>
      <g>
        <g>
          <g>
            <path class="cls-2" d="M178.77,87.23c-2.8,3.27-5.93,6.59-7.74,10.48-1.47,3.29-2.45,6.8-4.13,10.03-.48,.88-1.5,1.44-2.32,1.82-2.1,.94-4.25,1.46-6.4,2.11-1.41,.46-3.13,.8-4.24,1.66-.32,.53,.01,1.27,.23,1.91,.4,1.03,.93,1.94,1.35,3.04,.14,.38,.33,1.05,.19,1.61-.1,.39-.37,.76-.64,1.02-.96,.83-1.77,.87-2.68,1.37,0,0-.02,.01-.02,.01,0,0,.01,0,.02-.01,.01-.01,0,0,.02-.03,.03-.02,.05-.1,.06-.12,0,0,0-.02,0-.01-.02,.86,.24,1.75,.46,2.58,0,0,.27,.78,.27,.78l-.8,.41c-.46,.25-1.07,.62-1.29,1.03-.01,.03,0,.02,0,0,.01,0,0-.05,0-.02,.24,1.01,1.19,1.74,1.26,2.96,0,.23-.1,.53-.24,.71-.77,.89-1.53,1.73-2.11,2.67-2.04,3.25-1.05,4.54,2.06,6.25,3.7,1.96,7.85,3.14,11.85,4.48,2.14,.74,4.07,1.94,5.69,3.47,3.26,3,4.91,7.58,4.51,11.95,0,0-.46-.02-.46-.02,.05-3.16-.86-6.28-2.73-8.81-1.84-2.46-4.51-4.33-7.44-5.19-2.04-.59-4.12-1.16-6.18-1.82-3.13-1.08-6.43-2-9.04-4.29-1.01-.92-1.54-2.39-1.36-3.74,.33-2.52,1.9-4.42,3.48-6.17,0,0,0,0,0,0,0,0,0,0,0,0-.07,.09-.11,.2-.13,.31,0,.08-.01,.07-.02,.12,0,.17,.01,.14,.02,.16-.81-1.59-2.11-3.25-.3-4.82,.53-.47,1.03-.75,1.62-1.03,0,0-.53,1.2-.53,1.19-.29-.95-.56-1.88-.62-2.88-.04-.61,.13-1.28,.63-1.67,.68-.59,2.04-.83,2.6-1.33,.03-.04,.07-.07,.07-.09,0,0,.02-.02,0,0-.02,.02-.04,.14-.04,.14-.48-1.78-1.75-3.38-1.9-5.36-.31-3.07,3.67-3.61,5.86-4.32,2.57-.76,5.26-1.16,7.43-2.54,.35-.28,.5-.65,.73-1.05,1.57-3.19,2.75-6.61,4.49-9.76,2.2-3.57,5.34-6.45,8.48-9.18h0Z"/>
            <path class="cls-2" d="M198.77,128.55s-1.54,2.7,.93,9.88,6.45,17.94-2.5,22.14c4.15-5.2,1.88-13.2,1.29-15.46s-3.6-12.23,.27-16.55Z"/>
            <path class="cls-2" d="M172.87,170.31s4.09,.43,10.53-6.5,6.35-19.37,6.86-27.02,1.38-16.49,4.16-20.74c-7.89,6.47-6.75,14.31-7.22,20.1-.35,4.36,1.13,25.37-14.34,34.16Z"/>
            <path class="cls-2" d="M175.7,114c-2.26,.52-6.13-.19-6.02-3.14,1.08,2.36,3.66,2.92,6.02,3.14h0Z"/>
            <path class="cls-2" d="M167.17,111.07c.9,.54,1.98,.75,3,.63,0,0,0,.76,0,.76-1.13-.13-2.2-.62-3-1.39h0Z"/>
            <path class="cls-2" d="M167.77,112.01c.84,.33,2,.62,2.78,.2,0,0,.31,1,.31,1-1.25,.15-2.22-.48-3.09-1.2h0Z"/>
            <path class="cls-2" d="M199.71,152.14c.53-8.51-10.29-19.12-7.71-29.6,0,0-1.5,1.3-1.72,7.16s7.53,15.98,9.43,22.43Z"/>
            <path class="cls-2" d="M155.06,148.25s-19.73,24.84,5.74,57.67c-31.06-30.92-5.74-57.67-5.74-57.67Z"/>
            <path class="cls-2" d="M193.68,155.93s-2.6,2.49,.31,11.53-1.84,21.42-8.19,28.55c11.34-9.57,11.48-20.56,10.7-26.28-.68-4.96-2.99-7.27-2.82-13.8Z"/>
            <g>
              <path class="cls-2" d="M199.08,110.74s5.66-5.08,12.07-4.74,12.37,5.46,12.37,5.46c0,0-4.08,1.12-8.57,4.34s-10.97,2.34-16.83-1.32c5.45-3.5,11.68-3.41,11.68-3.41,0,0-4.77-1.72-10.73-.33Z"/>
              <path class="cls-2" d="M198.13,114.48s5.31,2.08,8.48,6.28c3.16,4.2,1.56,9.55,3.42,16-10.04-2.78-16.14-11.43-14.22-19.79,2.61,7.21,6.67,9.54,6.67,9.54,0,0-4.78-8.09-4.35-12.04Z"/>
              <path class="cls-2" d="M179.35,123.37s2.02-2.52,3.79-5.18,4.93-4.69,10.29-4.05c-2.14,4.04-6.18,5.42-6.18,5.42,0,0,4.61-.28,7.18-3.5-2.01,4.78-6.7,9.68-15.08,7.32Z"/>
              <path class="cls-2" d="M197.38,110.46s3.51-4.18,2.4-9.28c-1.11-5.1-5.06-7.65-5.06-7.65,0,0-.52,3.03-1.62,5.32-1.1,2.3-3.01,5.15,2.51,12.15,2.22-3.65,.68-8.49,.68-8.49,0,0,1.78,2.87,1.09,7.94Z"/>
              <path class="cls-2" d="M194.91,111.96s-1.04-3.91-4.53-5.8c-3.49-1.88-7.58-.35-9.97-2.11,1.48,6.01,6.69,10.8,13.32,9.76-6.09-3.74-6.64-4.9-6.64-4.9,0,0,3.82,3.69,7.82,3.05Z"/>
            </g>
          </g>
          <g>
            <path class="cls-2" d="M146.5,192.09c-14.71-8.94-24.56-25.12-24.56-43.56,0-25.67,19.09-46.95,43.81-50.42,.43-.95,.89-1.9,1.4-2.85-26.86,2.86-47.86,25.66-47.86,53.27,0,20.94,12.08,39.1,29.63,47.91-.91-1.47-1.72-2.92-2.42-4.35Z"/>
            <path class="cls-2" d="M226.46,148.53c0,24.94-17.12,45.95-40.22,51.9,1.12-1.07,3.36-3.39,4-4.02,19.56-7.11,33.58-25.89,33.58-47.88,0-10.69-3.33-20.62-8.98-28.83,.72-.34,1.41-.74,2.06-1.21,.07-.05,.15-.1,.22-.15,5.89,8.61,9.35,19,9.35,30.19Z"/>
            <path class="cls-2" d="M176.53,95.09s-1.11,1.44-1.72,2.56c.85,.01,1.67,.09,2.71,.17,3.96,.36,7.78,1.18,11.43,2.39,.26-.88,.61-1.69,.99-2.46h0c-4.26-1.44-8.75-2.35-13.41-2.67Z"/>
          </g>
        </g>
        <text class="cls-3" transform="translate(94.87 240.9)"><tspan x="0" y="0">Nowara</tspan></text>
        <text class="cls-1" transform="translate(117.78 254.43)"><tspan x="0" y="0">MAKEUP STORE</tspan></text>
      </g>
    </g>
  </g>
</svg>